<svg xmlns="http://www.w3.org/2000/svg" viewBox="0 0 399.6 100" role="img" aria-label="truecell">
  <rect width="100" height="100" rx="23" fill="#17423a"/>
  <g>
    <circle cx="29.23" cy="85.13" r="0.91" fill="#f3f6f4" opacity="0.24"/>
    <circle cx="30.81" cy="87.93" r="0.94" fill="#f3f6f4" opacity="0.24"/>
    <circle cx="60.78" cy="46.89" r="1.05" fill="#f3f6f4" opacity="0.24"/>
    <circle cx="29.80" cy="13.52" r="0.97" fill="#f3f6f4" opacity="0.24"/>
    <circle cx="31.64" cy="87.36" r="0.88" fill="#f3f6f4" opacity="0.24"/>
    <circle cx="59.13" cy="40.67" r="1.15" fill="#f3f6f4" opacity="0.24"/>
    <circle cx="49.82" cy="61.38" r="1.26" fill="#f3f6f4" opacity="0.24"/>
    <circle cx="16.89" cy="83.90" r="1.07" fill="#f3f6f4" opacity="0.24"/>
    <circle cx="26.73" cy="83.90" r="1.11" fill="#f3f6f4" opacity="0.24"/>
    <circle cx="64.45" cy="65.36" r="1.28" fill="#f3f6f4" opacity="0.24"/>
    <circle cx="76.11" cy="50.28" r="0.94" fill="#f3f6f4" opacity="0.24"/>
    <circle cx="80.64" cy="50.56" r="1.17" fill="#f3f6f4" opacity="0.24"/>
    <circle cx="25.35" cy="63.47" r="2.55" fill="#eb9d5c" opacity="0.992"/>
    <circle cx="36.15" cy="76.10" r="2.24" fill="#eb9d5c" opacity="0.975"/>
    <circle cx="58.98" cy="75.99" r="1.56" fill="#eb9d5c" opacity="0.692"/>
    <circle cx="22.08" cy="46.88" r="2.38" fill="#f3f6f4" opacity="0.999"/>
    <circle cx="67.29" cy="23.70" r="2.50" fill="#f3f6f4" opacity="0.982"/>
    <circle cx="40.01" cy="80.13" r="1.73" fill="#eb9d5c" opacity="0.793"/>
    <circle cx="25.72" cy="64.68" r="2.54" fill="#eb9d5c" opacity="0.997"/>
    <circle cx="39.85" cy="20.78" r="2.23" fill="#f3f6f4" opacity="0.89"/>
    <circle cx="32.94" cy="23.03" r="1.79" fill="#f3f6f4" opacity="0.714"/>
    <circle cx="43.69" cy="17.46" r="1.71" fill="#f3f6f4" opacity="0.639"/>
    <circle cx="57.21" cy="78.82" r="2.05" fill="#eb9d5c" opacity="0.962"/>
    <circle cx="50.95" cy="18.08" r="2.02" fill="#f3f6f4" opacity="0.846"/>
    <circle cx="69.41" cy="26.76" r="2.07" fill="#f3f6f4" opacity="0.94"/>
    <circle cx="46.97" cy="77.38" r="1.92" fill="#eb9d5c" opacity="0.821"/>
    <circle cx="30.08" cy="79.02" r="0.80" fill="#eb9d5c" opacity="0.38"/>
    <circle cx="37.68" cy="76.67" r="2.46" fill="#eb9d5c" opacity="0.99"/>
    <circle cx="27.36" cy="33.41" r="2.05" fill="#f3f6f4" opacity="0.989"/>
    <circle cx="47.23" cy="18.77" r="2.16" fill="#f3f6f4" opacity="0.884"/>
    <circle cx="60.61" cy="80.98" r="1.87" fill="#eb9d5c" opacity="0.823"/>
    <circle cx="21.89" cy="52.37" r="2.45" fill="#eb9d5c" opacity="0.994"/>
    <circle cx="42.94" cy="79.06" r="2.51" fill="#eb9d5c" opacity="0.981"/>
    <circle cx="57.08" cy="22.30" r="2.17" fill="#f3f6f4" opacity="0.856"/>
    <circle cx="27.30" cy="28.41" r="1.72" fill="#f3f6f4" opacity="0.744"/>
    <circle cx="30.70" cy="28.25" r="2.08" fill="#f3f6f4" opacity="0.98"/>
    <circle cx="30.29" cy="72.80" r="1.86" fill="#eb9d5c" opacity="0.894"/>
    <circle cx="65.64" cy="73.89" r="1.75" fill="#eb9d5c" opacity="0.781"/>
    <circle cx="22.74" cy="61.12" r="2.08" fill="#eb9d5c" opacity="0.915"/>
    <circle cx="63.78" cy="21.80" r="2.25" fill="#f3f6f4" opacity="0.973"/>
    <circle cx="50.01" cy="82.72" r="1.95" fill="#eb9d5c" opacity="0.747"/>
    <circle cx="26.10" cy="65.72" r="2.26" fill="#eb9d5c" opacity="0.99"/>
    <circle cx="52.13" cy="18.81" r="2.11" fill="#f3f6f4" opacity="0.924"/>
    <circle cx="68.79" cy="79.80" r="1.42" fill="#eb9d5c" opacity="0.563"/>
    <circle cx="22.51" cy="46.69" r="2.17" fill="#f3f6f4" opacity="0.985"/>
    <circle cx="22.98" cy="37.83" r="2.30" fill="#f3f6f4" opacity="0.895"/>
    <circle cx="62.48" cy="75.94" r="1.88" fill="#eb9d5c" opacity="0.833"/>
    <circle cx="56.71" cy="20.95" r="2.43" fill="#f3f6f4" opacity="0.97"/>
    <circle cx="27.82" cy="30.52" r="2.27" fill="#f3f6f4" opacity="0.942"/>
    <circle cx="28.24" cy="68.61" r="2.44" fill="#eb9d5c" opacity="0.996"/>
    <circle cx="37.45" cy="28.78" r="1.41" fill="#f3f6f4" opacity="0.536"/>
    <circle cx="32.13" cy="23.12" r="1.65" fill="#f3f6f4" opacity="0.661"/>
    <circle cx="67.76" cy="26.63" r="2.08" fill="#f3f6f4" opacity="0.86"/>
    <circle cx="21.27" cy="42.97" r="2.21" fill="#f3f6f4" opacity="0.896"/>
    <circle cx="31.41" cy="31.72" r="1.97" fill="#f3f6f4" opacity="0.777"/>
    <circle cx="27.49" cy="28.11" r="1.85" fill="#f3f6f4" opacity="0.745"/>
    <circle cx="67.52" cy="79.02" r="1.76" fill="#eb9d5c" opacity="0.729"/>
    <circle cx="50.82" cy="16.87" r="1.71" fill="#f3f6f4" opacity="0.711"/>
    <circle cx="30.51" cy="69.94" r="2.04" fill="#eb9d5c" opacity="0.958"/>
    <circle cx="42.02" cy="74.87" r="1.65" fill="#eb9d5c" opacity="0.686"/>
    <circle cx="24.90" cy="64.24" r="2.37" fill="#eb9d5c" opacity="0.974"/>
    <circle cx="66.18" cy="21.93" r="2.15" fill="#f3f6f4" opacity="0.898"/>
    <circle cx="44.34" cy="22.37" r="1.88" fill="#f3f6f4" opacity="0.904"/>
    <circle cx="22.17" cy="45.84" r="2.13" fill="#f3f6f4" opacity="0.997"/>
    <circle cx="30.35" cy="28.26" r="1.99" fill="#f3f6f4" opacity="0.964"/>
    <circle cx="24.78" cy="46.13" r="1.88" fill="#f3f6f4" opacity="0.779"/>
    <circle cx="40.18" cy="22.34" r="2.28" fill="#f3f6f4" opacity="0.998"/>
    <circle cx="35.50" cy="26.21" r="2.32" fill="#f3f6f4" opacity="0.935"/>
    <circle cx="23.58" cy="32.54" r="1.52" fill="#f3f6f4" opacity="0.668"/>
    <circle cx="24.44" cy="56.22" r="2.21" fill="#eb9d5c" opacity="0.866"/>
    <circle cx="48.15" cy="75.72" r="1.49" fill="#eb9d5c" opacity="0.576"/>
    <circle cx="24.66" cy="33.15" r="1.96" fill="#f3f6f4" opacity="0.827"/>
    <circle cx="65.33" cy="80.58" r="1.60" fill="#eb9d5c" opacity="0.669"/>
    <circle cx="56.51" cy="80.87" r="2.16" fill="#eb9d5c" opacity="0.922"/>
    <circle cx="24.01" cy="66.00" r="2.07" fill="#eb9d5c" opacity="0.813"/>
    <circle cx="27.84" cy="35.13" r="1.95" fill="#f3f6f4" opacity="0.88"/>
    <circle cx="65.25" cy="71.68" r="1.29" fill="#eb9d5c" opacity="0.479"/>
    <circle cx="26.01" cy="64.35" r="2.27" fill="#eb9d5c" opacity="0.981"/>
    <circle cx="25.85" cy="42.95" r="1.72" fill="#f3f6f4" opacity="0.712"/>
    <circle cx="35.15" cy="26.72" r="2.17" fill="#f3f6f4" opacity="0.916"/>
    <circle cx="23.68" cy="44.39" r="2.29" fill="#f3f6f4" opacity="0.924"/>
    <circle cx="66.98" cy="26.29" r="2.15" fill="#f3f6f4" opacity="0.844"/>
    <circle cx="42.54" cy="78.53" r="2.15" fill="#eb9d5c" opacity="0.999"/>
    <circle cx="68.59" cy="73.91" r="2.17" fill="#eb9d5c" opacity="0.946"/>
    <circle cx="29.52" cy="64.53" r="1.54" fill="#eb9d5c" opacity="0.68"/>
    <circle cx="40.31" cy="76.59" r="2.09" fill="#eb9d5c" opacity="0.942"/>
    <circle cx="35.09" cy="28.61" r="1.74" fill="#f3f6f4" opacity="0.75"/>
    <circle cx="37.37" cy="75.54" r="2.12" fill="#eb9d5c" opacity="0.972"/>
    <circle cx="18.41" cy="41.85" r="1.28" fill="#f3f6f4" opacity="0.496"/>
    <circle cx="69.08" cy="24.72" r="2.31" fill="#f3f6f4" opacity="0.979"/>
    <circle cx="33.60" cy="71.24" r="2.15" fill="#eb9d5c" opacity="0.847"/>
    <circle cx="28.48" cy="38.43" r="1.44" fill="#f3f6f4" opacity="0.606"/>
    <circle cx="33.16" cy="26.08" r="2.45" fill="#f3f6f4" opacity="0.98"/>
    <circle cx="33.43" cy="71.12" r="2.11" fill="#eb9d5c" opacity="0.854"/>
    <circle cx="59.29" cy="80.94" r="2.03" fill="#eb9d5c" opacity="0.864"/>
    <circle cx="22.70" cy="50.16" r="2.27" fill="#f3f6f4" opacity="0.963"/>
    <circle cx="45.68" cy="81.00" r="2.18" fill="#eb9d5c" opacity="0.878"/>
    <circle cx="42.38" cy="78.11" r="2.42" fill="#eb9d5c" opacity="0.989"/>
    <circle cx="68.31" cy="79.70" r="1.38" fill="#eb9d5c" opacity="0.593"/>
    <circle cx="50.45" cy="80.67" r="2.46" fill="#eb9d5c" opacity="0.964"/>
    <circle cx="33.55" cy="75.38" r="2.29" fill="#eb9d5c" opacity="0.905"/>
    <circle cx="52.20" cy="21.96" r="1.82" fill="#f3f6f4" opacity="0.841"/>
    <circle cx="24.86" cy="65.28" r="2.08" fill="#eb9d5c" opacity="0.926"/>
    <circle cx="61.52" cy="18.34" r="1.80" fill="#f3f6f4" opacity="0.709"/>
    <circle cx="54.88" cy="81.64" r="1.93" fill="#eb9d5c" opacity="0.865"/>
    <circle cx="30.08" cy="60.03" r="0.80" fill="#eb9d5c" opacity="0.38"/>
    <circle cx="63.84" cy="22.92" r="2.34" fill="#f3f6f4" opacity="0.979"/>
    <circle cx="19.29" cy="49.72" r="1.85" fill="#eb9d5c" opacity="0.757"/>
    <circle cx="38.39" cy="25.31" r="2.11" fill="#f3f6f4" opacity="0.86"/>
    <circle cx="20.91" cy="52.77" r="2.06" fill="#eb9d5c" opacity="0.92"/>
    <circle cx="37.06" cy="77.98" r="2.09" fill="#eb9d5c" opacity="0.872"/>
    <circle cx="59.83" cy="21.59" r="2.06" fill="#f3f6f4" opacity="0.974"/>
    <circle cx="24.93" cy="63.88" r="2.27" fill="#eb9d5c" opacity="0.985"/>
    <circle cx="30.77" cy="28.55" r="2.44" fill="#f3f6f4" opacity="0.995"/>
    <circle cx="62.68" cy="18.09" r="1.63" fill="#f3f6f4" opacity="0.635"/>
    <circle cx="38.07" cy="17.85" r="1.06" fill="#f3f6f4" opacity="0.421"/>
    <circle cx="47.30" cy="81.90" r="1.85" fill="#eb9d5c" opacity="0.812"/>
    <circle cx="39.66" cy="24.54" r="1.95" fill="#f3f6f4" opacity="0.87"/>
    <circle cx="22.31" cy="35.36" r="1.76" fill="#f3f6f4" opacity="0.705"/>
    <circle cx="46.06" cy="74.84" r="1.30" fill="#eb9d5c" opacity="0.506"/>
    <circle cx="27.39" cy="59.40" r="1.52" fill="#eb9d5c" opacity="0.623"/>
    <circle cx="58.09" cy="18.95" r="1.83" fill="#f3f6f4" opacity="0.878"/>
    <circle cx="55.18" cy="75.61" r="1.29" fill="#eb9d5c" opacity="0.547"/>
    <circle cx="19.83" cy="44.13" r="1.79" fill="#f3f6f4" opacity="0.759"/>
    <circle cx="21.13" cy="45.71" r="1.97" fill="#f3f6f4" opacity="0.924"/>
    <circle cx="29.14" cy="37.32" r="1.41" fill="#f3f6f4" opacity="0.594"/>
    <circle cx="37.51" cy="24.02" r="2.19" fill="#f3f6f4" opacity="0.991"/>
    <circle cx="40.42" cy="23.01" r="2.45" fill="#f3f6f4" opacity="0.968"/>
    <circle cx="24.47" cy="30.84" r="1.64" fill="#f3f6f4" opacity="0.645"/>
    <circle cx="21.08" cy="45.99" r="2.21" fill="#f3f6f4" opacity="0.923"/>
    <circle cx="36.22" cy="26.60" r="1.85" fill="#f3f6f4" opacity="0.856"/>
    <circle cx="44.30" cy="19.16" r="1.82" fill="#f3f6f4" opacity="0.863"/>
    <circle cx="22.97" cy="35.72" r="1.81" fill="#f3f6f4" opacity="0.799"/>
    <circle cx="22.93" cy="47.37" r="2.31" fill="#f3f6f4" opacity="0.952"/>
    <circle cx="48.06" cy="20.01" r="2.55" fill="#f3f6f4" opacity="0.993"/>
    <circle cx="33.28" cy="64.77" r="0.80" fill="#eb9d5c" opacity="0.38"/>
    <circle cx="63.91" cy="21.91" r="2.03" fill="#f3f6f4" opacity="0.979"/>
    <circle cx="19.67" cy="56.70" r="1.68" fill="#eb9d5c" opacity="0.714"/>
    <circle cx="58.74" cy="15.83" r="1.14" fill="#f3f6f4" opacity="0.449"/>
    <circle cx="61.95" cy="80.16" r="1.82" fill="#eb9d5c" opacity="0.866"/>
    <circle cx="23.27" cy="36.41" r="1.97" fill="#f3f6f4" opacity="0.863"/>
    <circle cx="32.02" cy="26.75" r="2.47" fill="#f3f6f4" opacity="0.966"/>
    <circle cx="47.79" cy="22.86" r="1.86" fill="#f3f6f4" opacity="0.777"/>
    <circle cx="58.95" cy="21.30" r="2.29" fill="#f3f6f4" opacity="0.979"/>
    <circle cx="57.24" cy="75.50" r="1.38" fill="#eb9d5c" opacity="0.574"/>
    <circle cx="66.66" cy="27.08" r="1.81" fill="#f3f6f4" opacity="0.743"/>
    <circle cx="29.72" cy="34.39" r="1.92" fill="#f3f6f4" opacity="0.738"/>
    <circle cx="34.96" cy="30.95" r="1.25" fill="#f3f6f4" opacity="0.51"/>
    <circle cx="55.01" cy="20.56" r="2.42" fill="#f3f6f4" opacity="0.983"/>
    <circle cx="47.11" cy="79.08" r="2.04" fill="#eb9d5c" opacity="0.976"/>
    <circle cx="37.91" cy="20.96" r="1.93" fill="#f3f6f4" opacity="0.807"/>
    <circle cx="36.47" cy="20.21" r="1.45" fill="#f3f6f4" opacity="0.635"/>
    <circle cx="43.98" cy="21.65" r="2.04" fill="#f3f6f4" opacity="0.974"/>
    <circle cx="24.96" cy="41.33" r="2.06" fill="#f3f6f4" opacity="0.879"/>
    <circle cx="54.39" cy="77.57" r="1.90" fill="#eb9d5c" opacity="0.794"/>
    <circle cx="21.94" cy="40.45" r="2.28" fill="#f3f6f4" opacity="0.894"/>
    <circle cx="34.77" cy="73.85" r="2.40" fill="#eb9d5c" opacity="0.971"/>
    <circle cx="25.50" cy="34.65" r="2.06" fill="#f3f6f4" opacity="0.968"/>
    <circle cx="38.42" cy="24.26" r="1.96" fill="#f3f6f4" opacity="0.946"/>
    <circle cx="39.58" cy="76.70" r="2.02" fill="#eb9d5c" opacity="0.973"/>
    <circle cx="51.97" cy="23.06" r="1.86" fill="#f3f6f4" opacity="0.705"/>
    <circle cx="25.68" cy="65.05" r="2.22" fill="#eb9d5c" opacity="0.988"/>
    <circle cx="27.63" cy="27.31" r="1.76" fill="#f3f6f4" opacity="0.676"/>
    <circle cx="34.40" cy="77.37" r="1.72" fill="#eb9d5c" opacity="0.776"/>
    <circle cx="37.29" cy="69.51" r="0.80" fill="#eb9d5c" opacity="0.38"/>
    <circle cx="53.00" cy="22.23" r="1.89" fill="#f3f6f4" opacity="0.808"/>
    <circle cx="26.88" cy="43.22" r="1.56" fill="#f3f6f4" opacity="0.579"/>
    <circle cx="18.92" cy="53.86" r="1.53" fill="#eb9d5c" opacity="0.676"/>
    <circle cx="45.99" cy="78.66" r="2.46" fill="#eb9d5c" opacity="0.962"/>
    <circle cx="65.10" cy="25.84" r="1.99" fill="#f3f6f4" opacity="0.776"/>
    <circle cx="24.61" cy="36.74" r="2.11" fill="#f3f6f4" opacity="0.981"/>
    <circle cx="25.91" cy="58.44" r="1.73" fill="#eb9d5c" opacity="0.769"/>
    <circle cx="26.51" cy="33.80" r="2.52" fill="#f3f6f4" opacity="0.998"/>
    <circle cx="49.86" cy="78.08" r="1.84" fill="#eb9d5c" opacity="0.854"/>
    <circle cx="48.21" cy="79.06" r="2.05" fill="#eb9d5c" opacity="0.964"/>
    <circle cx="60.06" cy="22.09" r="2.00" fill="#f3f6f4" opacity="0.932"/>
    <circle cx="45.22" cy="77.50" r="2.19" fill="#eb9d5c" opacity="0.872"/>
    <circle cx="25.01" cy="64.81" r="1.96" fill="#eb9d5c" opacity="0.959"/>
    <circle cx="23.37" cy="50.79" r="2.04" fill="#eb9d5c" opacity="0.906"/>
    <circle cx="29.70" cy="26.87" r="1.89" fill="#f3f6f4" opacity="0.825"/>
    <circle cx="23.07" cy="45.30" r="2.46" fill="#f3f6f4" opacity="0.961"/>
    <circle cx="44.22" cy="82.51" r="1.68" fill="#eb9d5c" opacity="0.661"/>
    <circle cx="21.47" cy="53.62" r="2.27" fill="#eb9d5c" opacity="0.962"/>
    <circle cx="32.04" cy="69.61" r="1.78" fill="#eb9d5c" opacity="0.837"/>
    <circle cx="57.92" cy="22.66" r="2.06" fill="#f3f6f4" opacity="0.836"/>
    <circle cx="36.95" cy="73.69" r="1.87" fill="#eb9d5c" opacity="0.838"/>
    <circle cx="32.23" cy="77.37" r="1.57" fill="#eb9d5c" opacity="0.611"/>
    <circle cx="64.54" cy="80.61" r="1.83" fill="#eb9d5c" opacity="0.711"/>
    <circle cx="36.77" cy="74.32" r="2.11" fill="#eb9d5c" opacity="0.911"/>
    <circle cx="59.39" cy="79.67" r="2.29" fill="#eb9d5c" opacity="0.979"/>
    <circle cx="23.16" cy="35.04" r="1.73" fill="#f3f6f4" opacity="0.782"/>
    <circle cx="23.63" cy="69.59" r="1.33" fill="#eb9d5c" opacity="0.511"/>
    <circle cx="22.66" cy="34.97" r="1.76" fill="#f3f6f4" opacity="0.722"/>
    <circle cx="37.33" cy="71.90" r="1.48" fill="#eb9d5c" opacity="0.625"/>
    <circle cx="31.61" cy="28.50" r="2.49" fill="#f3f6f4" opacity="0.984"/>
    <circle cx="50.67" cy="22.84" r="1.67" fill="#f3f6f4" opacity="0.735"/>
    <circle cx="62.00" cy="26.31" r="1.43" fill="#f3f6f4" opacity="0.53"/>
    <circle cx="36.89" cy="73.24" r="1.91" fill="#eb9d5c" opacity="0.807"/>
    <circle cx="57.86" cy="78.75" r="2.29" fill="#eb9d5c" opacity="0.966"/>
    <circle cx="65.28" cy="77.16" r="2.10" fill="#eb9d5c" opacity="0.992"/>
    <circle cx="24.12" cy="56.97" r="1.97" fill="#eb9d5c" opacity="0.915"/>
    <circle cx="25.92" cy="59.44" r="1.98" fill="#eb9d5c" opacity="0.802"/>
  </g>
  <g transform="translate(129.00,12.50) scale(0.4000)">
    <path d="M26.0,132.5 L26.0,17.5" fill="none" stroke="#17423a" stroke-width="15.0" stroke-linecap="round" stroke-linejoin="round"/>
    <path d="M0.0,47.5 L52.0,47.5" fill="none" stroke="#17423a" stroke-width="15.0" stroke-linecap="round" stroke-linejoin="round"/>
    <path d="M82.0,132.5 L82.0,47.5" fill="none" stroke="#17423a" stroke-width="15.0" stroke-linecap="round" stroke-linejoin="round"/>
    <path d="M82.0,90.0 L82.0,88.0 L82.2,86.1 L82.4,84.1 L82.7,82.2 L83.1,80.2 L83.6,78.3 L84.2,76.4 L84.9,74.6 L85.7,72.8 L86.5,71.0 L87.4,69.2 L88.4,67.5 L89.5,65.9 L90.7,64.3 L91.9,62.7 L93.2,61.3 L94.6,59.8 L96.0,58.5 L97.5,57.2 L99.0,56.0 L100.6,54.8 L102.3,53.8 L104.0,52.8 L105.8,51.9 L107.5,51.0 L109.4,50.3 L111.2,49.6 L113.1,49.1 L115.0,48.6 L117.0,48.2 L118.9,47.9 L120.9,47.7 L122.8,47.5 L124.8,47.5 L126.8,47.6 L128.8,47.7 L130.7,48.0 L132.7,48.3 L134.6,48.7 L136.5,49.2 L138.4,49.8 L140.2,50.5 L142.0,51.3 L143.8,52.1 L145.5,53.1 L147.2,54.1 L148.9,55.2" fill="none" stroke="#17423a" stroke-width="15.0" stroke-linecap="round" stroke-linejoin="round"/>
    <path d="M179.0,47.5 L179.0,90.0 L179.0,90.0 L179.1,92.8 L179.4,95.7 L179.9,98.5 L180.5,101.2 L181.4,103.9 L182.4,106.6 L183.6,109.2 L184.9,111.7 L186.5,114.1 L188.1,116.3 L190.0,118.5 L192.0,120.6 L194.1,122.5 L196.3,124.2 L198.6,125.8 L201.1,127.3 L203.6,128.6 L206.2,129.7 L208.9,130.6 L211.6,131.3 L214.4,131.9 L217.2,132.3 L220.1,132.5 L222.9,132.5 L225.8,132.3 L228.6,131.9 L231.4,131.3 L234.1,130.6 L236.8,129.7 L239.4,128.6 L241.9,127.3 L244.4,125.8 L246.7,124.2 L248.9,122.5 L251.0,120.6 L253.0,118.5 L254.9,116.3 L256.5,114.1 L258.1,111.7 L259.4,109.2 L260.6,106.6 L261.6,103.9 L262.5,101.2 L263.1,98.5 L263.6,95.7 L263.9,92.8 L264.0,90.0" fill="none" stroke="#17423a" stroke-width="15.0" stroke-linecap="round" stroke-linejoin="round"/>
    <path d="M264.0,47.5 L264.0,132.5" fill="none" stroke="#17423a" stroke-width="15.0" stroke-linecap="round" stroke-linejoin="round"/>
    <path d="M294.0,90.0 L379.0,90.0 L378.7,85.2 L377.9,80.5 L376.6,75.8 L374.7,71.4 L372.4,67.2 L369.6,63.3 L366.3,59.7 L362.7,56.5 L358.8,53.8 L354.5,51.5 L350.1,49.7 L345.4,48.4 L340.7,47.7 L335.9,47.5 L331.1,47.8 L326.3,48.7 L321.7,50.1 L317.3,52.1 L313.2,54.5 L309.3,57.3 L305.8,60.6 L302.7,64.3 L300.0,68.3 L297.8,72.5 L296.0,77.0 L294.8,81.7 L294.1,86.5 L294.0,91.3 L294.4,96.1 L295.4,100.8 L296.9,105.3 L298.9,109.7 L301.3,113.9 L304.2,117.7 L307.6,121.1 L311.3,124.2 L315.3,126.8 L319.6,129.0 L324.1,130.7 L328.8,131.8 L333.6,132.4 L338.4,132.5 L343.2,132.0 L347.9,130.9 L352.4,129.4 L356.8,127.3 L360.9,124.8" fill="none" stroke="#17423a" stroke-width="15.0" stroke-linecap="round" stroke-linejoin="round"/>
    <path d="M475.9,55.2 L472.5,53.1 L469.0,51.3 L465.4,49.8 L461.6,48.7 L457.7,48.0 L453.8,47.6 L449.8,47.5 L445.9,47.9 L442.0,48.6 L438.2,49.6 L434.5,51.0 L431.0,52.8 L427.6,54.8 L424.5,57.2 L421.6,59.8 L418.9,62.7 L416.5,65.9 L414.4,69.2 L412.7,72.8 L411.2,76.4 L410.1,80.2 L409.4,84.1 L409.0,88.0 L409.0,92.0" fill="none" stroke="#17423a" stroke-width="15.0" stroke-linecap="round" stroke-linejoin="round"/>
    <path d="M409.0,92.0 L409.4,95.9 L410.1,99.8 L411.2,103.6 L412.7,107.2 L414.4,110.8 L416.5,114.1 L418.9,117.3 L421.6,120.2 L424.5,122.8 L427.6,125.2 L431.0,127.2 L434.5,129.0 L438.2,130.4 L442.0,131.4 L445.9,132.1 L449.8,132.5 L453.8,132.4 L457.7,132.0 L461.6,131.3 L465.4,130.2 L469.0,128.7 L472.5,126.9 L475.9,124.8" fill="none" stroke="#b2560d" stroke-width="15.0" stroke-linecap="round" stroke-linejoin="round"/>
    <path d="M524.0,90.0 L609.0,90.0 L608.7,85.2 L607.9,80.5 L606.6,75.8 L604.7,71.4 L602.4,67.2 L599.6,63.3 L596.3,59.7 L592.7,56.5 L588.8,53.8 L584.5,51.5 L580.1,49.7 L575.4,48.4 L570.7,47.7 L565.9,47.5 L561.1,47.8 L556.3,48.7 L551.7,50.1 L547.3,52.1 L543.2,54.5 L539.3,57.3 L535.8,60.6 L532.7,64.3 L530.0,68.3 L527.8,72.5 L526.0,77.0 L524.8,81.7 L524.1,86.5 L524.0,91.3 L524.4,96.1 L525.4,100.8 L526.9,105.3 L528.9,109.7 L531.3,113.9 L534.2,117.7 L537.6,121.1 L541.3,124.2 L545.3,126.8 L549.6,129.0 L554.1,130.7 L558.8,131.8 L563.6,132.4 L568.4,132.5 L573.2,132.0 L577.9,130.9 L582.4,129.4 L586.8,127.3 L590.9,124.8" fill="none" stroke="#17423a" stroke-width="15.0" stroke-linecap="round" stroke-linejoin="round"/>
    <path d="M639.0,132.5 L639.0,7.5" fill="none" stroke="#17423a" stroke-width="15.0" stroke-linecap="round" stroke-linejoin="round"/>
    <path d="M669.0,132.5 L669.0,7.5" fill="none" stroke="#17423a" stroke-width="15.0" stroke-linecap="round" stroke-linejoin="round"/>
  </g>
</svg>
